<?xml version="1.0" encoding="UTF-8" standalone="no"?>
<svg
   xmlns:dc="http://purl.org/dc/elements/1.1/"
   xmlns:cc="http://creativecommons.org/ns#"
   xmlns:rdf="http://www.w3.org/1999/02/22-rdf-syntax-ns#"
   xmlns:svg="http://www.w3.org/2000/svg"
   xmlns="http://www.w3.org/2000/svg"
   xmlns:sodipodi="http://sodipodi.sourceforge.net/DTD/sodipodi-0.dtd"
   xmlns:inkscape="http://www.inkscape.org/namespaces/inkscape"
   viewBox="0 0 625 625"
   version="1.1"
   id="svg3111"
   inkscape:version="0.48.3.1 r9886"
   width="100%"
   height="100%"
   sodipodi:docname="android.svg">
  <metadata
     id="metadata3197">
    <rdf:RDF>
      <cc:Work
         rdf:about="">
        <dc:format>image/svg+xml</dc:format>
        <dc:type
           rdf:resource="http://purl.org/dc/dcmitype/StillImage" />
      </cc:Work>
    </rdf:RDF>
  </metadata>
  <defs
     id="defs3195" />
  <sodipodi:namedview
     pagecolor="#ffffff"
     bordercolor="#666666"
     borderopacity="1"
     objecttolerance="10"
     gridtolerance="10"
     guidetolerance="10"
     inkscape:pageopacity="0"
     inkscape:pageshadow="2"
     inkscape:window-width="1366"
     inkscape:window-height="744"
     id="namedview3193"
     showgrid="false"
     inkscape:zoom="0.96"
     inkscape:cx="312.5"
     inkscape:cy="312.5"
     inkscape:window-x="0"
     inkscape:window-y="24"
     inkscape:window-maximized="1"
     inkscape:current-layer="svg3111" />
  <path
     d="m378.75 61.25-15 22.5"
     id="path3115" />
  <path
     d="m378.75 61.25-15 22.5"
     stroke="#fff"
     stroke-linecap="round"
     stroke-width="37.5"
     fill="none"
     id="path3117" />
  <path
     d="m246.25 61.25 15 22.5"
     id="path3119" />
  <path
     d="m246.25 61.25 15 22.5"
     stroke="#fff"
     stroke-linecap="round"
     stroke-width="37.5"
     fill="none"
     id="path3121" />
  <path
     d="m270 375v47.5"
     id="path3123" />
  <path
     d="m270 375v47.5"
     stroke="#fff"
     stroke-linecap="round"
     stroke-width="75"
     fill="none"
     id="path3125" />
  <path
     d="m355 375v47.5"
     id="path3127" />
  <path
     d="m355 375v47.5"
     stroke="#fff"
     stroke-linecap="round"
     stroke-width="75"
     fill="none"
     id="path3129" />
  <path
     d="m170 202.5v96.25"
     id="path3131" />
  <path
     d="m170 202.5v96.25"
     stroke="#fff"
     stroke-linecap="round"
     stroke-width="75"
     fill="none"
     id="path3133" />
  <path
     d="m455 202.5v96.25"
     id="path3135" />
  <path
     d="m455 202.5v96.25"
     stroke="#fff"
     stroke-linecap="round"
     stroke-width="75"
     fill="none"
     id="path3137" />
  <path
     fill="#A4C639"
     d="m312.5 71.25c62.132 0 112.5 41.975 112.5 93.75h-225c0-51.775 50.369-93.75 112.5-93.75z"
     id="path3139" />
  <path
     d="m312.5 71.25c62.132 0 112.5 41.975 112.5 93.75 0 51.778-50.368 93.75-112.5 93.75-62.131 0-112.5-41.972-112.5-93.75 0-51.775 50.369-93.75 112.5-93.75z"
     stroke="#fff"
     stroke-linecap="round"
     stroke-width="15"
     fill="none"
     id="path3141" />
  <path
     fill="#A4C639"
     d="m425 172.5h-225v172.5c0 17.26 13.991 31.25 31.25 31.25h162.5c17.26 0 31.25-13.99 31.25-31.25v-172.5z"
     id="path3143" />
  <path
     d="m425 172.5h-225v172.5c0 17.26 13.991 31.25 31.25 31.25h162.5c17.26 0 31.25-13.99 31.25-31.25v-172.5z"
     stroke="#fff"
     stroke-linecap="round"
     stroke-width="15"
     fill="none"
     id="path3145" />
  <path
     d="m267.5 112.5c6.214 0 11.25 5.038 11.25 11.25 0 6.214-5.036 11.25-11.25 11.25s-11.25-5.036-11.25-11.25c0-6.212 5.036-11.25 11.25-11.25z"
     fill="#fff"
     id="path3147" />
  <path
     d="m357.5 112.5c6.214 0 11.25 5.038 11.25 11.25 0 6.214-5.036 11.25-11.25 11.25s-11.25-5.036-11.25-11.25c0-6.212 5.036-11.25 11.25-11.25z"
     fill="#fff"
     id="path3149" />
  <path
     d="m378.75 61.25-30 45"
     id="path3151" />
  <path
     d="m378.75 61.25-30 45"
     stroke="#A4C639"
     stroke-linecap="round"
     stroke-width="7.5"
     fill="none"
     id="path3153" />
  <path
     d="m246.25 61.25 30 45"
     id="path3155" />
  <path
     d="m246.25 61.25 30 45"
     stroke="#A4C639"
     stroke-linecap="round"
     stroke-width="7.5"
     fill="none"
     id="path3157" />
  <path
     d="m270 375v47.5"
     id="path3159" />
  <path
     d="m270 367.988v54.512"
     stroke="#A4C639"
     stroke-linecap="round"
     stroke-width="45"
     fill="none"
     id="path3161" />
  <path
     d="m355 375v47.5"
     id="path3163" />
  <path
     d="m355 367.988v56.483"
     stroke="#A4C639"
     stroke-linecap="round"
     stroke-width="45"
     fill="none"
     id="path3165" />
  <path
     d="m170 202.5v96.25"
     id="path3167" />
  <path
     d="m170 202.5v96.25"
     stroke="#A4C639"
     stroke-linecap="round"
     stroke-width="45"
     fill="none"
     id="path3169" />
  <path
     d="m455 202.5v96.25"
     id="path3171" />
  <g
     fill="none"
     id="g3173">
    <path
       d="m455 202.5v96.25"
       stroke="#A4C639"
       stroke-linecap="round"
       stroke-width="45"
       id="path3175" />
    <g
       stroke="#fff"
       stroke-width="15"
       stroke-linecap="square"
       id="g3177">
      <path
         d="m72.5 587.5c-16.5686 0-30-13.431-30-30 0-16.568 13.4314-30 30-30h30v60"
         id="path3179" />
      <path
         d="m132.5 587.5v-30c0-16.568 13.431-30 30-30s30 13.432 30 30v30"
         id="path3181" />
      <path
         d="m222.5 587.5h30c16.569 0 30-13.431 30-30 0-16.568-13.431-30-30-30h-30"
         id="path3183" />
      <path
         d="m312.5 565h41.25c10.355 0 18.75-8.392 18.75-18.75 0-10.355-8.395-18.75-18.75-18.75h-41.25m60 60c0-12.425-10.074-22.5-22.5-22.5"
         id="path3185" />
      <path
         d="m432.5 527.5c16.569 0 30 13.432 30 30 0 16.569-13.431 30-30 30-16.568 0-30-13.431-30-30 0-16.568 13.432-30 30-30z"
         id="path3187" />
      <path
         d="m492.5 587.5v-60"
         id="path3189" />
      <path
         d="m522.5 587.5h30c16.569 0 30-13.431 30-30 0-16.568-13.431-30-30-30h-30"
         id="path3191" />
      <path
         style="fill:#000000;fill-opacity:1;stroke:#000000;stroke-width:2.08333325;stroke-miterlimit:4;stroke-opacity:1;stroke-dasharray:none"
         d="M 66.114271,593.69369 C 54.309974,591.3639 44.112996,583.40202 39.150172,572.63991 c -2.552146,-5.53445 -2.995383,-7.80246 -2.999503,-15.34824 -0.0041,-7.42529 0.444032,-9.81177 2.776604,-14.78802 3.548164,-7.56956 10.79848,-14.81988 18.368042,-18.36804 5.791374,-2.71466 6.490359,-2.78903 29.110935,-3.09725 l 23.17708,-0.31581 0,37.03456 0,37.03456 -7.29166,0 -7.29167,0 0,-30.30823 0,-30.30822 -14.322917,0.38722 c -12.131587,0.32799 -14.960394,0.72618 -18.489583,2.60269 -8.053932,4.28236 -12.325445,11.27319 -12.29764,20.12654 0.04298,13.68582 8.362032,21.68157 24.379012,23.43157 l 5.831371,0.63713 -0.44105,5.41357 c -0.242578,2.97746 -0.625422,5.9995 -0.850763,6.71564 -0.459994,1.46189 -5.879875,1.54903 -12.694159,0.20411 z"
         id="path3199"
         inkscape:connector-curvature="0" />
      <path
         style="fill:#000000;fill-opacity:1;stroke:#000000;stroke-width:2.08333325;stroke-miterlimit:4;stroke-opacity:1;stroke-dasharray:none"
         d="m 125.20833,576.23298 c 0,-27.2652 2.10437,-35.38472 11.60321,-44.76993 13.99824,-13.8308 35.81389,-14.20269 50.77787,-0.8656 3.55316,3.16687 8.89245,11.90355 10.33992,16.91924 0.77683,2.69181 1.23734,12.28694 1.23734,25.78125 l 0,21.49373 -6.77084,0 -6.77083,0 0,-19.60261 c 0,-23.78233 -0.97132,-28.14687 -7.62999,-34.28461 -10.48774,-9.66727 -27.12638,-7.65906 -34.84118,4.20517 l -2.84133,4.36955 -0.33325,22.65625 -0.33325,22.65625 -7.21883,0 -7.21884,0 0,-18.55869 z"
         id="path3201"
         inkscape:connector-curvature="0" />
      <path
         style="fill:#000000;fill-opacity:1;stroke:#000000;stroke-width:2.08333325;stroke-miterlimit:4;stroke-opacity:1;stroke-dasharray:none"
         d="m 215.83333,587.5 0,-7.29167 21.09375,-0.0229 c 23.77557,-0.0258 26.71009,-0.70191 32.71117,-7.53676 4.36886,-4.97586 5.95057,-10.18527 5.29331,-17.43369 -0.69636,-7.67962 -4.38564,-13.56906 -10.89789,-17.39705 -4.95275,-2.9113 -5.05125,-2.92337 -26.58575,-3.25796 l -21.61459,-0.33584 0,-6.75081 0,-6.7508 23.17709,0.31581 c 22.77794,0.31037 23.27587,0.36432 28.91325,3.13302 23.2382,11.41301 28.49219,41.16852 10.45421,59.2065 -9.4468,9.4468 -17.0186,11.41379 -43.93672,11.41379 l -18.60783,0 0,-7.29167 z"
         id="path3203"
         inkscape:connector-curvature="0" />
      <path
         style="fill:#000000;fill-opacity:1;stroke:#000000;stroke-width:2.08333325;stroke-miterlimit:4;stroke-opacity:1;stroke-dasharray:none"
         d="m 365.55382,588.51816 c -0.62634,-6.9074 -2.38069,-10.21569 -7.41058,-13.97463 -2.68442,-2.00612 -4.51701,-2.16833 -27.80022,-2.46073 l -24.92635,-0.31304 0,-6.71821 0,-6.71822 19.53125,-0.14247 c 32.03471,-0.23368 31.8813,-0.22368 35.02601,-2.2823 7.88798,-5.16371 6.64366,-17.22341 -2.12094,-20.55571 -1.41457,-0.53782 -13.79143,-0.97785 -27.50414,-0.97785 l -24.93218,0 0,-6.77083 0,-6.77084 26.82291,0.0229 c 24.72842,0.0211 27.18895,0.18857 31.51042,2.14474 13.39788,6.06474 19.18967,20.92897 13.1583,33.76988 -1.34549,2.86459 -3.45756,6.10788 -4.69349,7.20733 -2.22064,1.97541 -2.22352,2.02455 -0.2441,4.16666 3.75097,4.05929 6.64468,11.14841 7.39775,18.12332 0.41337,3.82857 0.65066,7.08962 0.52732,7.24679 -0.12334,0.15717 -3.2672,0.56992 -6.98635,0.91722 l -6.76209,0.63145 -0.59352,-6.54544 z"
         id="path3205"
         inkscape:connector-curvature="0" />
      <path
         style="fill:#000000;fill-opacity:1;stroke:#000000;stroke-width:2.08333325;stroke-miterlimit:4;stroke-opacity:1;stroke-dasharray:none"
         d="m 426.17876,593.74048 c -12.49394,-2.11435 -23.45958,-11.38805 -28.08557,-23.75211 -6.45187,-17.24418 1.53714,-36.99365 18.42624,-45.55115 5.4727,-2.77294 7.08012,-3.08305 15.98057,-3.08305 8.90045,0 10.50787,0.31011 15.98057,3.08305 7.83586,3.97034 15.48843,12.30574 18.37109,20.01035 5.4647,14.60573 0.49516,32.52388 -11.64074,41.97176 -7.62007,5.93228 -19.51469,8.93179 -29.03216,7.32115 l 0,0 z m 19.03677,-17.21594 c 5.71234,-3.95975 10.21061,-12.42714 10.17826,-19.15924 -0.0395,-8.22948 -5.26066,-16.56157 -12.97631,-20.70817 -4.20769,-2.26133 -15.62727,-2.26133 -19.83496,0 -11.51305,6.18743 -15.90998,19.02697 -10.49694,30.65228 4.22965,9.0838 11.00823,13.02349 21.67161,12.59548 5.78669,-0.23227 7.75427,-0.81273 11.45834,-3.38035 l 0,0 z"
         id="path3207"
         inkscape:connector-curvature="0" />
      <path
         style="fill:#000000;fill-opacity:1;stroke:#000000;stroke-width:2.08333325;stroke-miterlimit:4;stroke-opacity:1;stroke-dasharray:none"
         d="m 485.625,557.8125 0,-36.97917 6.77083,0 6.77084,0 0,36.97917 0,36.97917 -6.77084,0 -6.77083,0 0,-36.97917 z"
         id="path3209"
         inkscape:connector-curvature="0" />
      <path
         style="fill:#000000;fill-opacity:1;stroke:#000000;stroke-width:2.08333325;stroke-miterlimit:4;stroke-opacity:1;stroke-dasharray:none"
         d="m 515.83333,587.5 0,-7.29167 21.09375,-0.0229 c 23.77557,-0.0258 26.71009,-0.70191 32.71117,-7.53676 4.36886,-4.97586 5.95057,-10.18527 5.29331,-17.43369 -0.69636,-7.67962 -4.38564,-13.56906 -10.89789,-17.39705 -4.95275,-2.9113 -5.05125,-2.92337 -26.58575,-3.25796 l -21.61459,-0.33584 0,-6.75081 0,-6.7508 23.17709,0.31581 c 22.77794,0.31037 23.27587,0.36432 28.91325,3.13302 23.2382,11.41301 28.49219,41.16852 10.45421,59.2065 -9.4468,9.4468 -17.0186,11.41379 -43.93672,11.41379 l -18.60783,0 0,-7.29167 z"
         id="path3211"
         inkscape:connector-curvature="0" />
    </g>
  </g>
</svg>
